
      <svg data-logo="logo" xmlns="http://www.w3.org/2000/svg" viewBox="0 0 304 43">
        <g id="logogram" transform="translate(0, 1) rotate(0) "><path d="M38.1031 12.7987C35.6986 8.63451 29.6871 8.63451 27.2826 12.7987L23.7111 18.9839H30.8682C35.1161 18.9839 38.324 21.9856 39.1339 25.6374L40.0127 24.1156C41.4437 21.6373 41.4437 18.5839 40.0126 16.1056L38.1031 12.7987Z" fill="#BB6BD9"/><path fill-rule="evenodd" clip-rule="evenodd" d="M28.3106 0.0999239C31.4174 0.100339 34.288 1.75771 35.8414 4.44786C37.8719 7.96425 39.8916 11.4868 41.9221 15.0032C43.7471 18.1636 43.7471 22.0574 41.9221 25.2178C39.8987 28.7219 37.8647 32.2199 35.8413 35.724C34.2879 38.4142 31.4173 40.0716 28.3105 40.072C23.962 40.0725 19.6159 40.101 15.2676 40.0999C12.1612 40.0991 9.29111 38.4417 7.73792 35.7519C5.71067 32.2411 3.68676 28.7284 1.65953 25.2177C-0.165401 22.0573 -0.1654 18.1635 1.65953 15.0031C3.68594 11.4938 5.71162 7.98403 7.73803 4.47471C9.29121 1.78491 12.1613 0.127595 15.2677 0.126768C19.6161 0.126019 23.9624 0.0993436 28.3106 0.0999239ZM17.8842 2.33091L15.2683 2.33136C13.1986 2.33191 11.2695 3.31753 10.0544 4.95704C9.90805 5.15447 9.77207 5.36138 9.64745 5.5772L7.29878 9.64461C7.28139 9.67472 7.26429 9.70489 7.24747 9.7351L7.24696 9.73597C4.98328 13.8038 7.8206 18.8147 12.4326 19.0081H19.8783V18.9837H19.8814L16.2966 12.7757C14.1836 9.11639 15.1586 4.863 17.8842 2.33091ZM21.7908 22.321C22.7765 24.0281 23.7586 25.7373 24.7481 27.4422L25.3745 28.527C27.7795 32.6919 24.7725 37.8978 19.9626 37.8965L15.2682 37.8953C12.9493 37.8947 10.8069 36.6575 9.64744 34.6496L8.3246 32.3588C11.742 33.4304 15.7396 32.3007 17.9338 28.9699L17.9345 28.9689C18.0293 28.8249 18.1207 28.6768 18.2086 28.5246L21.7908 22.321ZM19.8638 21.2185L17.1765 25.8724C16.8796 26.3865 16.5961 26.908 16.2991 27.4223C13.8946 31.5865 7.88313 31.5865 5.47856 27.4223L3.56904 24.1154C2.13798 21.6371 2.13798 18.5837 3.56905 16.1054L4.44764 14.5838C4.85604 16.4055 5.86127 18.0641 7.29448 19.2674C8.65478 20.4094 10.4006 21.1412 12.3876 21.2127C12.4941 21.2166 12.6013 21.2185 12.7092 21.2185H19.8638ZM23.6829 21.1883H30.8682C35.6773 21.1883 38.683 26.3936 36.2785 30.5578L33.9318 34.6217C32.7722 36.6299 30.6294 37.8671 28.3102 37.8674L25.6984 37.8677C28.4226 35.3354 29.3966 31.0832 27.284 27.4247L23.6829 21.1883ZM21.7962 17.8908L18.2061 11.6736C15.8014 7.50907 18.8077 2.30347 23.6173 2.30411L28.3103 2.30474C30.6294 2.30505 32.7723 3.54224 33.9319 5.55038L35.2689 7.86593C31.701 6.74135 27.497 8.01818 25.3731 11.6964L21.7962 17.8908ZM27.2826 12.7987C29.6871 8.63452 35.6986 8.63452 38.1031 12.7987L40.0127 16.1056C41.4437 18.5839 41.4437 21.6373 40.0127 24.1156L39.1339 25.6374C38.324 21.9856 35.1161 18.9839 30.8682 18.9839H23.7111L27.2826 12.7987Z" fill="#283841"/><path d="M25.6985 37.8679C28.4227 35.3356 29.3967 31.0834 27.2841 27.4249L23.683 21.1884L30.8682 21.1884C35.6773 21.1884 38.683 26.3937 36.2785 30.558L33.9318 34.6219C32.7722 36.63 30.6294 37.8672 28.3102 37.8675L25.6985 37.8679Z" fill="#EB5757"/><path d="M8.32471 32.359C11.8901 33.477 16.087 32.1989 18.2086 28.5248L21.7909 22.321L25.3745 28.5271C27.7795 32.692 24.7725 37.8979 19.9626 37.8966L15.2682 37.8954C12.9493 37.8947 10.8069 36.6576 9.64743 34.6497L8.32471 32.359Z" fill="#F2994A"/><path d="M4.44759 14.5839L3.5689 16.1056C2.13784 18.5839 2.13784 21.6373 3.5689 24.1156L5.47841 27.4225C7.88299 31.5867 13.8944 31.5867 16.299 27.4225L19.8814 21.2185H12.7091C8.46855 21.2185 5.26441 18.2271 4.44759 14.5839Z" fill="#F2C94C"/><path d="M7.24572 9.7381C7.07673 10.042 6.93622 10.3512 6.82278 10.6633C6.93654 10.3504 7.07752 10.0404 7.24713 9.73566L7.24572 9.7381Z" fill="#F2C94C"/><path d="M17.8846 2.33087C15.1587 4.86294 14.1837 9.11646 16.2967 12.7759L19.899 19.0141H12.7091C7.89995 19.0141 4.89424 13.8089 7.29881 9.64463L9.64748 5.57721C10.8069 3.56934 12.9494 2.33219 15.2682 2.33157L17.8846 2.33087Z" fill="#27AE60"/><path d="M21.7962 17.8908L18.2062 11.6736C15.8014 7.50907 18.8078 2.30347 23.6173 2.30411L28.3103 2.30473C30.6295 2.30504 32.7723 3.54223 33.9319 5.55038L35.269 7.86592C31.701 6.74135 27.4971 8.01818 25.3731 11.6964L21.7962 17.8908Z" fill="#2F80ED"/></g>
        <g id="logotype" transform="translate(50, 9)"><path fill="#ffffff" d="M18.04 25.49L18.04 25.49Q15.14 25.49 13.09 25.04Q11.04 24.58 9.73 23.79Q8.41 23.00 7.77 21.95Q7.12 20.91 6.98 19.75L6.98 19.75L13.39 19.75Q13.56 20.20 14.07 20.61Q14.58 21.01 15.56 21.22Q16.54 21.43 18.04 21.43L18.04 21.43Q19.48 21.43 20.40 21.22Q21.33 21.01 21.79 20.61Q22.24 20.20 22.24 19.71L22.24 19.71Q22.24 19.19 21.86 18.91Q21.47 18.63 20.59 18.49L20.59 18.49L14.89 17.79Q11.04 17.30 9.26 16.00Q7.47 14.71 7.47 12.40L7.47 12.40Q7.47 11.07 8.12 10.00Q8.77 8.93 10.03 8.15Q11.29 7.36 13.19 6.94Q15.10 6.52 17.59 6.52L17.59 6.52Q21.16 6.52 23.33 7.20Q25.50 7.88 26.58 9.11Q27.67 10.33 27.88 12.01L27.88 12.01L21.47 12.01Q21.40 11.56 20.95 11.24Q20.49 10.93 19.65 10.75Q18.81 10.58 17.48 10.58L17.48 10.58Q16.26 10.58 15.47 10.77Q14.68 10.96 14.29 11.30Q13.91 11.63 13.91 12.08L13.91 12.08Q13.91 12.61 14.35 12.87Q14.79 13.13 15.59 13.27L15.59 13.27L22.10 14.08Q24.06 14.32 25.55 14.92Q27.04 15.51 27.91 16.62Q28.79 17.72 28.79 19.43L28.79 19.43Q28.79 20.94 28.07 22.08Q27.35 23.21 25.97 23.98Q24.59 24.75 22.57 25.12Q20.56 25.49 18.04 25.49ZM37.75 25L31.34 25L31.34 0.01L37.75 0.01L37.75 16.21L36.31 15.97L46.22 7.01L53.74 7.01L45.55 14.22Q46.74 14.64 47.55 15.29Q48.35 15.93 49.33 17.23L49.33 17.23L55.25 25L47.76 25L43.42 19.26Q42.75 18.35 41.89 18.26Q41.04 18.17 40.13 19.02L40.13 19.02L36.77 21.95L37.75 18.17L37.75 25ZM66.52 25.49L66.52 25.49Q62.70 25.49 60.01 24.30Q57.31 23.11 55.89 20.96Q54.48 18.80 54.48 16.00L54.48 16.00Q54.48 14.29 54.98 12.84Q55.49 11.38 56.49 10.21Q57.49 9.04 58.96 8.22Q60.43 7.39 62.32 6.96Q64.21 6.52 66.48 6.52L66.48 6.52Q69.28 6.52 71.47 7.15Q73.66 7.78 75.16 9.13Q76.67 10.47 77.44 12.50Q78.21 14.53 78.17 17.34L78.17 17.34L58.57 17.34L58.57 14.11L71.70 14.11Q71.52 13.27 71.08 12.64Q70.65 12.01 69.96 11.58Q69.28 11.14 68.41 10.93Q67.53 10.72 66.45 10.72L66.45 10.72Q65.33 10.72 64.40 10.98Q63.47 11.24 62.77 11.70Q62.07 12.15 61.63 12.80Q61.20 13.45 60.95 14.25Q60.71 15.06 60.71 16.00L60.71 16.00Q60.71 17.54 61.35 18.73Q62.00 19.93 63.31 20.61Q64.63 21.29 66.55 21.29L66.55 21.29Q68.23 21.29 69.44 20.89Q70.65 20.48 71.28 19.68L71.28 19.68L77.93 19.68Q77.51 21.25 76.21 22.59Q74.92 23.91 72.55 24.70Q70.19 25.49 66.52 25.49ZM96.02 25L89.62 25Q86.75 25 85.07 23.46Q83.39 21.92 83.39 19.16L83.39 19.16L83.39 2.14L89.79 2.14L89.79 18.11Q89.79 19.40 90.47 20.10Q91.16 20.80 92.49 20.80L92.49 20.80L96.02 20.80L96.02 25ZM83.95 11.14L79.22 11.14L79.22 7.01L83.95 7.01L83.95 11.14ZM96.02 11.14L89.23 11.14L89.23 7.01L96.02 7.01L96.02 11.14ZM109.81 25.49L109.81 25.49Q105.93 25.49 103.21 24.30Q100.50 23.11 99.07 20.96Q97.63 18.80 97.63 16.00L97.63 16.00Q97.63 14.29 98.14 12.84Q98.65 11.38 99.68 10.21Q100.71 9.04 102.18 8.22Q103.65 7.39 105.58 6.96Q107.50 6.52 109.81 6.52L109.81 6.52Q113.28 6.52 115.74 7.32Q118.21 8.13 119.63 9.65Q121.05 11.17 121.40 13.38L121.40 13.38L114.75 13.38Q114.43 12.64 113.73 12.12Q113.03 11.59 112.05 11.31Q111.07 11.03 109.78 11.03L109.78 11.03Q108.66 11.03 107.75 11.26Q106.84 11.49 106.17 11.94Q105.51 12.40 105.07 13.01Q104.63 13.62 104.40 14.38Q104.18 15.13 104.18 16.00L104.18 16.00Q104.18 17.41 104.79 18.54Q105.40 19.68 106.64 20.33Q107.89 20.98 109.78 20.98L109.78 20.98Q111.70 20.98 112.93 20.29Q114.15 19.61 114.75 18.66L114.75 18.66L121.40 18.66Q121.08 20.73 119.65 22.25Q118.21 23.77 115.74 24.63Q113.28 25.49 109.81 25.49ZM130.43 25L124.02 25L124.02 0.01L130.43 0.01L130.43 12.05L129.80 11.07Q130.60 9.67 131.77 8.64Q132.95 7.60 134.59 7.06Q136.24 6.52 138.37 6.52L138.37 6.52Q141.00 6.52 142.80 7.53Q144.60 8.55 145.55 10.46Q146.49 12.36 146.49 15.06L146.49 15.06L146.49 25L140.09 25L140.09 16.39Q140.09 14.01 139.04 12.64Q137.99 11.28 135.57 11.28L135.57 11.28Q134.00 11.28 132.84 11.93Q131.69 12.57 131.06 13.75Q130.43 14.92 130.43 16.49L130.43 16.49L130.43 25ZM164.10 25.49L164.10 25.49Q161.93 25.49 160.21 24.98Q158.50 24.48 157.31 23.60Q156.12 22.73 155.42 21.64L155.42 21.64L155.98 20.45L155.98 25L149.57 25L149.57 0.01L155.98 0.01L155.98 11.56L155.42 10.37Q156.12 9.28 157.31 8.41Q158.50 7.53 160.21 7.03Q161.93 6.52 164.10 6.52L164.10 6.52Q166.69 6.52 168.91 7.57Q171.13 8.62 172.50 10.70Q173.86 12.78 173.86 15.97L173.86 15.97Q173.86 17.86 173.34 19.38Q172.81 20.91 171.90 22.06Q170.99 23.21 169.77 23.97Q168.54 24.72 167.09 25.11Q165.64 25.49 164.10 25.49ZM161.68 20.98L161.68 20.98Q162.77 20.98 163.66 20.73Q164.55 20.48 165.23 20.01Q165.92 19.54 166.39 18.93Q166.86 18.31 167.09 17.56Q167.32 16.81 167.32 16.00L167.32 16.00Q167.32 14.60 166.65 13.48Q165.99 12.36 164.74 11.70Q163.50 11.03 161.68 11.03L161.68 11.03Q160.60 11.03 159.67 11.28Q158.74 11.52 158.04 12.00Q157.34 12.47 156.89 13.08Q156.43 13.69 156.19 14.43Q155.94 15.16 155.94 16.00L155.94 16.00Q155.94 17.34 156.61 18.47Q157.27 19.61 158.57 20.29Q159.86 20.98 161.68 20.98ZM188.00 25.49L188.00 25.49Q184.15 25.49 181.42 24.30Q178.69 23.11 177.26 20.98Q175.82 18.84 175.82 16.00L175.82 16.00Q175.82 14.29 176.35 12.84Q176.87 11.38 177.89 10.21Q178.90 9.04 180.37 8.22Q181.84 7.39 183.75 6.96Q185.66 6.52 188.00 6.52L188.00 6.52Q191.89 6.52 194.60 7.71Q197.31 8.90 198.75 11.03Q200.18 13.17 200.18 16.00L200.18 16.00Q200.18 17.68 199.66 19.16Q199.13 20.63 198.13 21.80Q197.14 22.97 195.65 23.79Q194.16 24.61 192.24 25.05Q190.31 25.49 188.00 25.49ZM188.00 20.98L188.00 20.98Q189.16 20.98 190.07 20.73Q190.98 20.48 191.64 20.01Q192.31 19.54 192.74 18.91Q193.18 18.28 193.39 17.54Q193.60 16.81 193.60 16.00L193.60 16.00Q193.60 14.64 193.01 13.52Q192.41 12.40 191.17 11.72Q189.93 11.03 188.00 11.03L188.00 11.03Q186.85 11.03 185.94 11.28Q185.03 11.52 184.36 12.00Q183.70 12.47 183.24 13.08Q182.79 13.69 182.58 14.45Q182.37 15.20 182.37 16.00L182.37 16.00Q182.37 17.34 182.98 18.47Q183.59 19.61 184.83 20.29Q186.08 20.98 188.00 20.98ZM214.29 25.49L214.29 25.49Q210.44 25.49 207.71 24.30Q204.98 23.11 203.54 20.98Q202.11 18.84 202.11 16.00L202.11 16.00Q202.11 14.29 202.63 12.84Q203.16 11.38 204.17 10.21Q205.19 9.04 206.66 8.22Q208.13 7.39 210.03 6.96Q211.94 6.52 214.29 6.52L214.29 6.52Q218.17 6.52 220.88 7.71Q223.60 8.90 225.03 11.03Q226.47 13.17 226.47 16.00L226.47 16.00Q226.47 17.68 225.94 19.16Q225.42 20.63 224.42 21.80Q223.42 22.97 221.93 23.79Q220.45 24.61 218.52 25.05Q216.60 25.49 214.29 25.49ZM214.29 20.98L214.29 20.98Q215.44 20.98 216.35 20.73Q217.26 20.48 217.93 20.01Q218.59 19.54 219.03 18.91Q219.47 18.28 219.68 17.54Q219.89 16.81 219.89 16.00L219.89 16.00Q219.89 14.64 219.29 13.52Q218.70 12.40 217.45 11.72Q216.21 11.03 214.29 11.03L214.29 11.03Q213.13 11.03 212.22 11.28Q211.31 11.52 210.65 12.00Q209.98 12.47 209.53 13.08Q209.07 13.69 208.86 14.45Q208.65 15.20 208.65 16.00L208.65 16.00Q208.65 17.34 209.26 18.47Q209.88 19.61 211.12 20.29Q212.36 20.98 214.29 20.98ZM235.46 25L229.06 25L229.06 0.01L235.46 0.01L235.46 16.21L234.03 15.97L243.93 7.01L251.46 7.01L243.27 14.22Q244.46 14.64 245.26 15.29Q246.07 15.93 247.05 17.23L247.05 17.23L252.96 25L245.47 25L241.13 19.26Q240.47 18.35 239.61 18.26Q238.75 18.17 237.84 19.02L237.84 19.02L234.48 21.95L235.46 18.17L235.46 25Z"/></g>
        
      </svg>
    